# xmcd
#
# Track frame offsets: 
#        150
#        33582
#        63932
#        88377
#        117140
#        154590
#        184085
#        202080
#        245437
#        259772
#        284502
#
# Disc length: 4189 seconds
#
# Revision: 5
# Processed by: cddbd v1.5.2PL0 Copyright (c) Steve Scherf et al.
# Submitted via: ExactAudioCopy v0.95b4
#
DISCID=9f105b0b
DTITLE=Bill Charlap Trio - Written In The Stars
DYEAR=2000
DGENRE=Jazz
TTITLE0=In The Still Of The Night
TTITLE1=Dream
TTITLE2=The Man That Got Away
TTITLE3=Blue Skies
TTITLE4=Where Have You Been?
TTITLE5=Where Or When
TTITLE6=On A Slow Boat To China
TTITLE7=One For My Baby
TTITLE8=I'll Never Go There Anymore
TTITLE9=Lorelei
TTITLE10=It Was Written In The Stars
EXTD=
EXTT0=
EXTT1=
EXTT2=
EXTT3=
EXTT4=
EXTT5=
EXTT6=
EXTT7=
EXTT8=
EXTT9=
EXTT10=
PLAYORDER=
